<svg viewBox="0 0 393.565 50.22" width="250" xmlns="http://www.w3.org/2000/svg"><style>.knlogo__path{opacity:.7}</style><path class="knlogo__path" d="M58.217 274.17v-48.34h9.776v18.342l7.573-18.342h10.93l-9.856 19.793 10.581 28.547H77.07l-7.305-22.102-1.772 4.565v17.537zm30.857 0v-48.34h20.169v6.714H98.85v13.16h7.358v6.874H98.85v14.878h10.393v6.714zm29.998 0-8.89-48.34h9.266l4.27 29.3 4.726-29.3h9.131l-9.56 48.34zm21.699 0v-48.34h9.775v48.34zm15.522 0v-48.367h7.037l10.608 25.298v-25.298h8.11v48.367h-6.768l-10.581-26.829v26.829zm42.513 0v-48.367h7.036l10.608 25.298v-25.298h8.11v48.367h-6.768l-10.58-26.829v26.829zm31.501 0v-48.34h20.168v6.714h-10.392v13.16h7.359v6.874h-7.36v14.878h10.393v6.714zm28.037 0-6.686-48.34h8.324l3.008 32.012 4.136-32.012h7.17l4.055 31.824 3.143-31.824h8.351l-6.767 48.34h-8.352l-4.055-31.636-3.974 31.636zm34.24-16.14v-16.006q0-17.134 14.02-17.134a16.052 16.052 0 0 1 5.25.793 10.622 10.622 0 0 1 6.418 5.626 16.978 16.978 0 0 1 1.45 4.43 28.998 28.998 0 0 1 .442 5.264v4.163h-9.613v-4.458q0-1.315-.055-2.27a17.315 17.315 0 0 0-.28-2.175 7.444 7.444 0 0 0-.619-1.987 3.557 3.557 0 0 0-1.154-1.303 3.124 3.124 0 0 0-1.84-.537q-4.244 0-4.243 7.144v20.866q0 7.117 4.243 7.117a3.179 3.179 0 0 0 2.122-.725 4.039 4.039 0 0 0 1.234-2.054 15.566 15.566 0 0 0 .51-2.606 28.029 28.029 0 0 0 .135-2.913v-4.969h9.56v4.082a33.906 33.906 0 0 1-.456 5.103 19.486 19.486 0 0 1-1.37 4.539 12.273 12.273 0 0 1-2.457 3.719 10.875 10.875 0 0 1-3.853 2.444 14.794 14.794 0 0 1-5.425.926 15.983 15.983 0 0 1-5.573-.9 11.324 11.324 0 0 1-4.001-2.417 12.233 12.233 0 0 1-2.591-3.732A18.507 18.507 0 0 1 293 263.4a32.093 32.093 0 0 1-.416-5.37zm31.53.242v-16.248q0-17.134 14.126-17.134 14.153 0 14.153 17.134v16.006a31.201 31.201 0 0 1-.43 5.358 18.406 18.406 0 0 1-1.464 4.66 12.592 12.592 0 0 1-2.632 3.745 11.231 11.231 0 0 1-4.042 2.43 18.097 18.097 0 0 1-11.145.015 11.371 11.371 0 0 1-4.027-2.364 12.148 12.148 0 0 1-2.62-3.652 18.086 18.086 0 0 1-1.476-4.606 29.963 29.963 0 0 1-.443-5.344zm18.504 2.202V239.58q0-7.143-4.378-7.144a3.713 3.713 0 0 0-2.23.659 3.805 3.805 0 0 0-1.341 1.798 11.37 11.37 0 0 0-.605 2.256 15.652 15.652 0 0 0-.175 2.431v20.894q0 7.117 4.35 7.116 4.378 0 4.379-7.116zm14.904 13.696v-48.34h11.709l5.156 32.227 5.56-32.227h11.306v48.34h-7.197l-.215-33.999q-.806 5.237-2.82 17t-2.819 17h-7.305l-5.936-34.214-.214 34.214zm39.476 0v-48.34h9.964a35.166 35.166 0 0 1 4.74.282 16.23 16.23 0 0 1 4.029 1.1 9.168 9.168 0 0 1 3.249 2.19 9.917 9.917 0 0 1 2.04 3.612 16.448 16.448 0 0 1 .766 5.304A9.127 9.127 0 0 1 420 244.28a11.852 11.852 0 0 1-5.545 3.438q8.62 2.094 8.62 12.192 0 7.278-3.491 10.769t-10.662 3.491zm9.723-29.326h1.664a4.566 4.566 0 0 0 2.256-.51 3.284 3.284 0 0 0 1.384-1.49 7.837 7.837 0 0 0 .657-2.109 16.311 16.311 0 0 0 .189-2.658 11.421 11.421 0 0 0-.175-2.122 10.585 10.585 0 0 0-.389-1.517 2.287 2.287 0 0 0-.725-1.02 5.472 5.472 0 0 0-.9-.619 3.635 3.635 0 0 0-1.181-.295q-.793-.094-1.276-.107t-1.504-.014zm.053 22.424h.914a8.97 8.97 0 0 0 3.088-.443 3.377 3.377 0 0 0 1.799-1.517 6.826 6.826 0 0 0 .819-2.431 25.838 25.838 0 0 0 .202-3.639 10.959 10.959 0 0 0-1.33-5.881q-1.329-2.095-4.525-2.095h-.967zm20.84 6.902v-48.34h20.169v6.714h-10.394v13.16h7.36v6.874h-7.36v14.878h10.394v6.714z" transform="translate(-54.217 -224.89)" style="fill:#00dcdc"/><path class="knlogo__path" d="M54.217 274.17v-48.34h9.776v18.342l7.573-18.342h10.93l-9.856 19.793 10.581 28.547H73.07l-7.305-22.102-1.772 4.565v17.537zm30.857 0v-48.34h20.169v6.714H94.85v13.16h7.358v6.874H94.85v14.878h10.393v6.714zm29.998 0-8.89-48.34h9.266l4.27 29.3 4.726-29.3h9.131l-9.56 48.34zm21.699 0v-48.34h9.775v48.34zm15.522 0v-48.367h7.037l10.608 25.298v-25.298h8.11v48.367h-6.768l-10.581-26.829v26.829zm42.513 0v-48.367h7.036l10.608 25.298v-25.298h8.11v48.367h-6.768l-10.58-26.829v26.829zm31.501 0v-48.34h20.168v6.714h-10.392v13.16h7.359v6.874h-7.36v14.878h10.393v6.714zm28.037 0-6.686-48.34h8.324l3.008 32.012 4.136-32.012h7.17l4.055 31.824 3.143-31.824h8.351l-6.767 48.34h-8.352l-4.055-31.636-3.974 31.636zm34.24-16.14v-16.006q0-17.134 14.02-17.134a16.052 16.052 0 0 1 5.25.793 10.622 10.622 0 0 1 6.418 5.626 16.978 16.978 0 0 1 1.45 4.43 28.998 28.998 0 0 1 .442 5.264v4.163h-9.613v-4.458q0-1.315-.055-2.27a17.315 17.315 0 0 0-.28-2.175 7.444 7.444 0 0 0-.619-1.987 3.557 3.557 0 0 0-1.154-1.303 3.124 3.124 0 0 0-1.84-.537q-4.244 0-4.243 7.144v20.866q0 7.117 4.243 7.117a3.179 3.179 0 0 0 2.122-.725 4.039 4.039 0 0 0 1.234-2.054 15.566 15.566 0 0 0 .51-2.606 28.029 28.029 0 0 0 .135-2.913v-4.969h9.56v4.082a33.906 33.906 0 0 1-.456 5.103 19.486 19.486 0 0 1-1.37 4.539 12.273 12.273 0 0 1-2.457 3.719 10.875 10.875 0 0 1-3.853 2.444 14.794 14.794 0 0 1-5.425.926 15.983 15.983 0 0 1-5.573-.9 11.324 11.324 0 0 1-4.001-2.417 12.233 12.233 0 0 1-2.591-3.732A18.507 18.507 0 0 1 289 263.4a32.093 32.093 0 0 1-.416-5.37zm31.53.242v-16.248q0-17.134 14.126-17.134 14.153 0 14.153 17.134v16.006a31.201 31.201 0 0 1-.43 5.358 18.406 18.406 0 0 1-1.464 4.66 12.592 12.592 0 0 1-2.632 3.745 11.231 11.231 0 0 1-4.042 2.43 18.097 18.097 0 0 1-11.145.015 11.371 11.371 0 0 1-4.027-2.364 12.148 12.148 0 0 1-2.62-3.652 18.086 18.086 0 0 1-1.476-4.606 29.963 29.963 0 0 1-.443-5.344zm18.504 2.202V239.58q0-7.143-4.378-7.144a3.713 3.713 0 0 0-2.23.659 3.805 3.805 0 0 0-1.341 1.798 11.37 11.37 0 0 0-.605 2.256 15.652 15.652 0 0 0-.175 2.431v20.894q0 7.117 4.35 7.116 4.378 0 4.379-7.116zm14.904 13.696v-48.34h11.709l5.156 32.227 5.56-32.227h11.306v48.34h-7.197l-.215-33.999q-.806 5.237-2.82 17t-2.819 17h-7.305l-5.936-34.214-.214 34.214zm39.476 0v-48.34h9.964a35.166 35.166 0 0 1 4.74.282 16.23 16.23 0 0 1 4.029 1.1 9.168 9.168 0 0 1 3.249 2.19 9.917 9.917 0 0 1 2.04 3.612 16.448 16.448 0 0 1 .766 5.304A9.127 9.127 0 0 1 416 244.28a11.852 11.852 0 0 1-5.545 3.438q8.62 2.094 8.62 12.192 0 7.278-3.491 10.769t-10.662 3.491zm9.723-29.326h1.664a4.566 4.566 0 0 0 2.256-.51 3.284 3.284 0 0 0 1.384-1.49 7.837 7.837 0 0 0 .657-2.109 16.311 16.311 0 0 0 .189-2.658 11.421 11.421 0 0 0-.175-2.122 10.585 10.585 0 0 0-.389-1.517 2.287 2.287 0 0 0-.725-1.02 5.472 5.472 0 0 0-.9-.619 3.635 3.635 0 0 0-1.181-.295q-.793-.094-1.276-.107t-1.504-.014zm.053 22.424h.914a8.97 8.97 0 0 0 3.088-.443 3.377 3.377 0 0 0 1.799-1.517 6.826 6.826 0 0 0 .819-2.431 25.838 25.838 0 0 0 .202-3.639 10.959 10.959 0 0 0-1.33-5.881q-1.329-2.095-4.525-2.095h-.967zm20.84 6.902v-48.34h20.169v6.714h-10.394v13.16h7.36v6.874h-7.36v14.878h10.394v6.714z" transform="translate(-54.217 -224.89)" style="fill:#ff3232"/></svg>
