<svg viewBox="0 0 16 16" xmlns="http://www.w3.org/2000/svg">
  <symbol id="close-right" viewBox="0 0 10 16"><path fill-rule="evenodd" clip-rule="evenodd" d="M6.53204 8L0 1.46796L1.46796 0L9.46796 8L1.46796 16L0 14.532L6.53204 8Z" /></symbol>
  <symbol id="drag" viewBox="0 0 10 16"><path fill-rule="evenodd" clip-rule="evenodd" d="M2 4C3.10457 4 4 3.10457 4 2C4 0.895431 3.10457 0 2 0C0.895431 0 0 0.895431 0 2C0 3.10457 0.895431 4 2 4ZM8 4C9.10457 4 10 3.10457 10 2C10 0.895431 9.10457 0 8 0C6.89543 0 6 0.895431 6 2C6 3.10457 6.89543 4 8 4ZM4 14C4 15.1046 3.10457 16 2 16C0.895431 16 0 15.1046 0 14C0 12.8954 0.895431 12 2 12C3.10457 12 4 12.8954 4 14ZM8 16C9.10457 16 10 15.1046 10 14C10 12.8954 9.10457 12 8 12C6.89543 12 6 12.8954 6 14C6 15.1046 6.89543 16 8 16ZM4 8C4 9.10457 3.10457 10 2 10C0.895431 10 0 9.10457 0 8C0 6.89543 0.895431 6 2 6C3.10457 6 4 6.89543 4 8ZM8 10C9.10457 10 10 9.10457 10 8C10 6.89543 9.10457 6 8 6C6.89543 6 6 6.89543 6 8C6 9.10457 6.89543 10 8 10Z" /></symbol>
</svg>
